# AST/ASF file generated using VICON BodyLanguage
# -----------------------------------------------
:version 1.10
:name VICON
:units
  mass 1.0
  length 0.45
  angle deg
:documentation
   .ast/.asf automatically generated from VICON data using
   VICON BodyBuilder and BodyLanguage model FoxedUp or BRILLIANT.MOD
:root
   order TX TY TZ RX RY RZ
   axis XYZ
   position 0 0 0  
   orientation 0 0 0 
:bonedata
  begin
     id 1 
     name lhipjoint
     direction 0.535335 -0.74333 0.401095 
     length 2.04549 
     axis 0 0 0  XYZ
  end
  begin
     id 2 
     name lfemur
     direction 0.34202 -0.939693 0  
     length 6.95643  
     axis 0 0 20  XYZ
    dof rx ry rz
    limits (-160.0 20.0)
           (-70.0 70.0)
           (-60.0 70.0)
  end
  begin
     id 3 
     name ltibia
     direction 0.34192 -0.939729 0   
     length 5.55969   
     axis 0 0 20   XYZ
    dof rx
    limits (-10.0 170.0)
  end
  begin
     id 4 
     name lfoot
     direction 0.216943 -0.596046 0.773088   
     length 2.27918   
     axis -90 7.62852e-016 20   XYZ
    dof rx rz
    limits (-45.0 90.0)
           (-70.0 20.0)
  end
  begin
     id 5 
     name ltoes
     direction 1.53519e-011 -4.21748e-011 1   
     length 1.05562   
     axis -90 7.62852e-016 20   XYZ
    dof rx
    limits (-90.0 20.0)
  end
  begin
     id 6 
     name rhipjoint
     direction -0.576368 -0.719173 0.38806   
     length 2.1142  
     axis 0 0 0  XYZ 
  end
  begin
     id 7 
     name rfemur
     direction -0.34202 -0.939693 0   
     length 7.07928   
     axis 0 0 -20   XYZ
    dof rx ry rz
    limits (-160.0 20.0)
           (-70.0 70.0)
           (-70.0 60.0)
  end
  begin
     id 8 
     name rtibia
     direction -0.34202 -0.939693 0   
     length 5.79974   
     axis 0 0 -20   XYZ
    dof rx
    limits (-10.0 170.0)
 end
 begin
     id 9 
     name rfoot
     direction -0.189288 -0.520065 0.832888   
     length 2.42173  
     axis -90 -7.62852e-016 -20   XYZ
    dof rx rz
    limits (-45.0 90.0)
           (-20.0 70.0)
  end
  begin
     id 10 
     name rtoes
     direction -1.53574e-011 -4.21658e-011 1   
     length 1.14469   
     axis -90 -7.62852e-016 -20   XYZ
    dof rx
    limits (-90.0 20.0)
  end
  begin
     id 11 
     name lowerback
     direction -0.00135702 0.993803 0.111144   
     length 1.91308   
     axis 0 0 0   XYZ
    dof rx ry rz
    limits (-20.0 45.0)
           (-30.0 30.0)
           (-30.0 30.0)
  end
  begin
     id 12 
     name upperback
     direction -0.0056745 0.999813 0.0184631   
     length 1.9212   
     axis 0 0 0   XYZ
    dof rx ry rz
    limits (-20.0 45.0)
           (-30.0 30.0)
           (-30.0 30.0)
  end
  begin
     id 13 
     name thorax
     direction -0.00733434 0.999426 -0.0330788   
     length 1.94196   
     axis 0 0 0   XYZ
    dof rx ry rz
    limits (-20.0 45.0)
           (-30.0 30.0)
           (-30.0 30.0)
  end
  begin
     id 14 
     name lowerneck
     direction 0.0563074 0.996944 -0.0541571   
     length 2.34257   
     axis 0 0 0   XYZ
    dof rx ry rz
    limits (-20.0 45.0)
           (-30.0 30.0)
           (-30.0 30.0)
  end
  begin
     id 15 
     name upperneck
     direction -0.0544519 0.976166 -0.210085   
     length 2.32506   
     axis 0 0 0   XYZ
    dof rx ry rz
    limits (-20.0 45.0)
           (-30.0 30.0)
           (-30.0 30.0)
  end
  begin
     id 16
     name head
     direction -0.0226035 0.997615 -0.0652205  
     length 2.3648  
     axis 0 0 0   XYZ
    dof rx ry rz
    limits (-20.0 45.0)
           (-30.0 30.0)
           (-30.0 30.0)
  end
  begin
     id 17 
     name lclavicle
     direction 0.92109 0.381297 -0.0787716  
     length 4.0487  
     axis 0 0 0   XYZ
    dof ry rz
    limits (-20.0 10.0)
           (0.0 20.0)
  end
  begin
     id 18 
     name lhumerus
     direction 1 -4.48986e-011 3.56724e-027   
     length 4.94991   
     axis 180 -30 -90   XYZ
    dof rx ry rz
    limits (-60.0 90.0)
           (-90.0 90.0)
           (-90.0 90.0)
  end
  begin
     id 19
     name lradius
     direction 1 -4.48981e-011 8.62147e-027   
     length 2.7606   
     axis 180 -30 -90   XYZ
    dof rx
    limits (-10.0 170.0)
  end
  begin
     id 20
     name lwrist
     direction 1 -4.48989e-011 1.59799e-026   
     length 1.3803   
     axis -1.17785e-014 90 90   XYZ
    dof ry
    limits (-180.0 0.0)
 end
  begin
     id 21 
     name lhand
     direction 1 -4.48896e-011 3.19599e-026   
     length 0.843936   
     axis -2.03931e-014 90 90   XYZ
    dof rx rz
    limits (-90.0 90.0)
           (-45.0 45.0)
  end
  begin
     id 22 
     name lfingers
     direction 1 -4.48887e-011 6.39197e-026   
     length 0.680403   
     axis -4.07862e-014 90 90   XYZ
    dof rx
    limits (0.0 90.0)
  end
  begin
     id 23
     name lthumb
     direction 0.707107 -6.348e-011 0.707107   
     length 0.976926   
     axis -90 45 2.85299e-015   XYZ
    dof rx rz
    limits (-45.0 45.0)
           (-45.0 45.0)
  end
  begin
     id 24 
     name rclavicle
     direction -0.951104 0.307692 -0.026953   
     length 4.21801  
     axis 0 0 0   XYZ 
    dof ry rz
    limits (-10.0 20.0)
           (-20.0 0.0)
  end
  begin
     id 25 
     name rhumerus
     direction -1 -4.4896e-011 -1.8171e-018  
     length 4.32982   
     axis 180 30 90   XYZ
    dof rx ry rz
    limits (-90.0 60.0)
           (-90.0 90.0)
           (-90.0 90.0)
  end
  begin
     id 26 
     name rradius
     direction -1 -4.48959e-011 8.25165e-027   
     length 3.20057   
     axis 180 30 90   XYZ
    dof rx
    limits (-10.0 170.0)
  end
  begin
     id 27 
     name rwrist
     direction -1 -4.48997e-011 1.59799e-026   
     length 1.60029   
     axis -1.17785e-014 -90 -90   XYZ
    dof ry
    limits (-180.0 0.0)
  end
  begin
     id 28
     name rhand
     direction -1 -4.49023e-011 3.19599e-026   
     length 0.960433   
     axis -2.03931e-014 -90 -90   XYZ
    dof rx rz
    limits (-90.0 90.0)
           (-45.0 45.0)
  end
  begin
     id 29
     name rfingers
     direction -1 -4.48802e-011 6.39197e-026   
     length 0.774326   
     axis -4.07862e-014 -90 -90   XYZ
    dof rx
    limits (0.0 90.0)
  end
  begin
     id 30
     name rthumb
     direction -0.707107 -6.34876e-011 0.707107   
     length 1.11178   
     axis -90 -45 -2.85299e-015   XYZ
    dof rx rz
    limits (-45.0 45.0)
           (-45.0 45.0)
  end
:hierarchy
  begin
    root lhipjoint rhipjoint lowerback
    lhipjoint lfemur
    lfemur ltibia
    ltibia lfoot
    lfoot ltoes
    rhipjoint rfemur
    rfemur rtibia
    rtibia rfoot
    rfoot rtoes
    lowerback upperback
    upperback thorax
    thorax lowerneck lclavicle rclavicle
    lowerneck upperneck
    upperneck head
    lclavicle lhumerus
    lhumerus lradius
    lradius lwrist
    lwrist lhand lthumb
    lhand lfingers
    rclavicle rhumerus
    rhumerus rradius
    rradius rwrist
    rwrist rhand rthumb
    rhand rfingers
end

#!OML:ASF C:\KaitlinTest1\Natural Motions\Nikki\Session 2\Nikki.ASF
:FULLY-SPECIFIED
:DEGREES
470
root -18.8574 16.6278 5.06525 -154.673 85.7557 -164.634
lowerback -13.6285 -1.67381 -0.139978
upperback -4.06548 -1.98287 -0.5672
thorax 3.33995 -0.904175 -0.829574
lowerneck -1.85249 1.57914 8.47646
upperneck 27.3811 3.858 -5.66522
head 9.11196 2.54319 -3.03378
rclavicle -3.72224e-014 -1.47101e-014
rhumerus -42.6926 -22.4314 -78.9991
rradius 18.3044
rwrist 29.5018
rhand -36.0121 3.3524
rfingers 7.12502
rthumb -9.12144 -26.4303
lclavicle -3.72224e-014 -1.47101e-014
lhumerus -42.3973 16.3772 80.2194
lradius 23.8948
lwrist -40.2038
lhand -32.94 3.52721
lfingers 7.12502
lthumb -6.15627 33.4178
rfemur -7.71238 -16.9186 21.0543
rtibia 11.2568
rfoot -10.8738 12.0543
rtoes 3.97569e-014
lfemur -9.8077 11.9814 -17.8499
ltibia 9.6016
lfoot -2.11786 -16.7385
ltoes 3.49861e-014
471
root -18.8579 16.6283 5.06526 -154.843 85.7617 -164.829
lowerback -13.6538 -1.67758 -0.16153
upperback -4.06671 -1.98447 -0.565454
thorax 3.35314 -0.904763 -0.8166
lowerneck -1.86304 1.58716 8.44584
upperneck 27.3841 3.86446 -5.63645
head 9.11454 2.5456 -3.01777
rclavicle -2.14936e-014 -3.18055e-015
rhumerus -42.6606 -22.2908 -79.1063
rradius 18.3611
rwrist 29.34
rhand -35.9571 3.23163
rfingers 7.12502
rthumb -9.06837 -26.5534
lclavicle -2.14936e-014 -3.18055e-015
lhumerus -42.3956 16.4011 80.2225
lradius 23.936
lwrist -40.2428
lhand -32.7885 3.59424
lfingers 7.12502
lthumb -6.01004 33.489
rfemur -7.73915 -16.8701 21.0371
rtibia 11.2511
rfoot -10.8433 12.027
rtoes -1.19271e-013
lfemur -9.84173 11.9809 -17.8744
ltibia 9.60896
lfoot -2.12242 -16.7288
ltoes -5.24792e-014
472
root -18.858 16.6288 5.06557 -154.926 85.7559 -164.901
lowerback -13.6385 -1.67938 -0.166366
upperback -4.06657 -1.98631 -0.568908
thorax 3.34507 -0.905787 -0.817329
lowerneck -1.86682 1.58119 8.47423
upperneck 27.3997 3.86527 -5.67912
head 9.12189 2.54536 -3.03769
rclavicle 1.13556e-014 5.1684e-015
rhumerus -42.658 -22.2775 -79.1365
rradius 18.3519
rwrist 29.2911
rhand -35.9918 3.25291
rfingers 7.12502
rthumb -9.10185 -26.5307
lclavicle 1.13556e-014 5.1684e-015
lhumerus -42.4075 16.4259 80.2004
lradius 23.9347
lwrist -40.302
lhand -32.8209 3.58383
lfingers 7.12502
lthumb -6.04128 33.4777
rfemur -7.72817 -16.8152 21.0211
rtibia 11.2576
rfoot -10.8093 11.9756
rtoes -4.53229e-014
lfemur -9.8195 11.9734 -17.8724
ltibia 9.58583
lfoot -2.12176 -16.7161
ltoes -2.38542e-014
473
root -18.8599 16.6283 5.06603 -155.031 85.7403 -164.991
lowerback -13.6204 -1.67741 -0.16738
upperback -4.04833 -1.98414 -0.581227
thorax 3.35395 -0.905143 -0.829077
lowerneck -1.87351 1.5837 8.49016
upperneck 27.3768 3.85989 -5.66531
head 9.11486 2.54452 -3.0358
rclavicle -2.53202e-014 -6.75868e-015
rhumerus -42.6239 -22.2643 -79.2159
rradius 18.386
rwrist 29.1704
rhand -36.0151 3.21274
rfingers 7.12502
rthumb -9.12437 -26.5699
lclavicle -2.53202e-014 -6.75868e-015
lhumerus -42.3438 16.2941 80.2763
lradius 23.9261
lwrist -40.1435
lhand -32.83 3.58507
lfingers 7.12502
lthumb -6.05011 33.4787
rfemur -7.70963 -16.8752 21.0336
rtibia 11.2442
rfoot -10.8386 11.9942
rtoes -4.53229e-014
lfemur -9.82623 11.9561 -17.8673
ltibia 9.59617
lfoot -2.10458 -16.7238
ltoes -2.22639e-014
474
root -18.8603 16.6295 5.06623 -155.182 85.7406 -165.144
lowerback -13.5792 -1.68602 -0.189519
upperback -4.07798 -1.9926 -0.567064
thorax 3.30181 -0.909155 -0.801399
lowerneck -1.84693 1.58607 8.45779
upperneck 27.3965 3.87338 -5.66631
head 9.11722 2.5494 -3.02976
rclavicle -1.55549e-014 -1.43125e-014
rhumerus -42.6377 -22.1589 -79.2347
rradius 18.3708
rwrist 29.132
rhand -36.0381 3.21125
rfingers 7.12502
rthumb -9.14653 -26.5704
lclavicle -1.55549e-014 -1.43125e-014
lhumerus -42.3941 16.3815 80.2506
lradius 23.9093
lwrist -40.1529
lhand -32.9329 3.562
lfingers 7.12502
lthumb -6.14947 33.4528
rfemur -7.70642 -16.7892 21.0075
rtibia 11.2283
rfoot -10.7927 11.93
rtoes 4.45278e-014
lfemur -9.83785 11.9514 -17.8798
ltibia 9.61677
lfoot -2.10365 -16.7245
ltoes 5.40694e-014
475
root -18.8572 16.6282 5.0648 -154.492 85.7511 -164.439
lowerback -13.6239 -1.67059 -0.127298
upperback -4.05849 -1.98125 -0.557093
thorax 3.34473 -0.903519 -0.825908
lowerneck -1.84159 1.58052 8.45307
upperneck 27.3904 3.86819 -5.67563
head 9.11358 2.54553 -3.03266
rclavicle -1.799e-014 -1.11319e-014
rhumerus -42.633 -22.2005 -79.2101
rradius 18.3456
rwrist 29.1882
rhand -36.0608 3.31049
rfingers 7.12502
rthumb -9.16843 -26.4702
lclavicle -1.799e-014 -1.11319e-014
lhumerus -42.4097 16.4525 80.2063
lradius 23.9561
lwrist -40.223
lhand -32.7876 3.5393
lfingers 7.12502
lthumb -6.00917 33.4341
rfemur -7.67387 -16.9156 21.0615
rtibia 11.217
rfoot -10.84 12.0595
rtoes -2.14687e-014
lfemur -9.81331 11.9831 -17.8305
ltibia 9.64427
lfoot -2.15811 -16.7132
ltoes -1.59028e-015
476
root -18.8584 16.6277 5.06486 -154.514 85.7358 -164.47
lowerback -13.6146 -1.67131 -0.121086
upperback -4.05932 -1.98278 -0.564668
thorax 3.33831 -0.90432 -0.837263
lowerneck -1.85594 1.57948 8.45674
upperneck 27.3978 3.86323 -5.66727
head 9.1185 2.54413 -3.03074
rclavicle 1.55301e-014 7.15625e-015
rhumerus -42.6394 -22.2339 -79.2023
rradius 18.3676
rwrist 29.2758
rhand -35.9612 3.20689
rfingers 7.12502
rthumb -9.07234 -26.578
lclavicle 1.55301e-014 7.15625e-015
lhumerus -42.4195 16.5024 80.1525
lradius 23.9694
lwrist -40.3569
lhand -32.7816 3.5323
lfingers 7.12502
lthumb -6.00339 33.4272
rfemur -7.68071 -16.894 21.0725
rtibia 11.2012
rfoot -10.8226 12.0334
rtoes 6.59965e-014
lfemur -9.8373 11.9692 -17.8253
ltibia 9.66025
lfoot -2.15966 -16.7242
ltoes 6.04305e-014
477
root -18.8614 16.6283 5.06593 -155.053 85.7427 -164.992
lowerback -13.546 -1.66755 -0.179553
upperback -4.06626 -1.96979 -0.586595
thorax 3.29531 -0.898305 -0.822966
lowerneck -1.86887 1.57003 8.47993
upperneck 27.423 3.84253 -5.64269
head 9.12845 2.53968 -3.02804
rclavicle 1.07592e-014 1.07344e-014
rhumerus -42.6507 -22.2606 -79.2233
rradius 18.3798
rwrist 29.2492
rhand -35.9702 3.18107
rfingers 7.12502
rthumb -9.08105 -26.6034
lclavicle 1.07592e-014 1.07344e-014
lhumerus -42.4161 16.4819 80.1393
lradius 23.9782
lwrist -40.4116
lhand -32.7298 3.56642
lfingers 7.12502
lthumb -5.95331 33.4628
rfemur -7.66408 -16.8612 21.0291
rtibia 11.1833
rfoot -10.7866 11.9898
rtoes 1.90833e-014
lfemur -9.85157 11.9583 -17.8591
ltibia 9.70234
lfoot -2.16469 -16.7105
ltoes 1.43125e-014
478
root -18.8611 16.6289 5.06572 -154.895 85.7276 -164.849
lowerback -13.5546 -1.66793 -0.15414
upperback -4.08326 -1.97263 -0.588606
thorax 3.28116 -0.899341 -0.839747
lowerneck -1.82676 1.57018 8.4862
upperneck 27.4075 3.84594 -5.64257
head 9.11554 2.5428 -3.02899
rclavicle -6.06293e-015 9.54166e-015
rhumerus -42.6755 -22.1978 -79.2809
rradius 18.4139
rwrist 29.1709
rhand -35.9451 3.08244
rfingers 7.12502
rthumb -9.05679 -26.7031
lclavicle -6.06293e-015 9.54166e-015
lhumerus -42.4192 16.4442 80.1453
lradius 23.954
lwrist -40.3674
lhand -32.7693 3.58707
lfingers 7.12502
lthumb -5.99146 33.4823
rfemur -7.68411 -16.8751 21.0516
rtibia 11.1912
rfoot -10.8074 11.9908
rtoes -1.59028e-015
lfemur -9.88907 11.9496 -17.8467
ltibia 9.70037
lfoot -2.15355 -16.7091
ltoes 1.74931e-014
479
root -18.8616 16.6286 5.06526 -154.502 85.7411 -164.459
lowerback -13.5459 -1.66454 -0.129215
upperback -4.08953 -1.97177 -0.581459
thorax 3.26927 -0.8989 -0.845811
lowerneck -1.81691 1.576 8.49679
upperneck 27.412 3.86011 -5.66285
head 9.11696 2.54909 -3.03683
rclavicle 2.06488e-014 1.94809e-014
rhumerus -42.6689 -22.1329 -79.3023
rradius 18.3965
rwrist 29.1277
rhand -35.9536 3.1741
rfingers 7.12502
rthumb -9.06501 -26.6111
lclavicle 2.06488e-014 1.94809e-014
lhumerus -42.4251 16.3984 80.1664
lradius 23.9564
lwrist -40.3307
lhand -32.7927 3.57728
lfingers 7.12502
lthumb -6.01405 33.4719
rfemur -7.69031 -16.9107 21.0727
rtibia 11.188
rfoot -10.7881 12.0414
rtoes -3.81667e-014
lfemur -9.87761 11.9739 -17.8289
ltibia 9.71144
lfoot -2.17178 -16.7081
ltoes -3.97569e-014
480
root -18.8615 16.6288 5.06537 -154.813 85.7617 -164.753
lowerback -13.5485 -1.65787 -0.159435
upperback -4.07226 -1.9593 -0.589418
thorax 3.28972 -0.893 -0.835512
lowerneck -1.83674 1.58142 8.46784
upperneck 27.4227 3.8612 -5.62878
head 9.12351 2.54968 -3.0197
rclavicle -3.60297e-014 -8.74653e-015
rhumerus -42.6481 -22.1289 -79.3264
rradius 18.3964
rwrist 29.086
rhand -36.0024 3.13976
rfingers 7.12502
rthumb -9.11214 -26.6434
lclavicle -3.60297e-014 -8.74653e-015
lhumerus -42.387 16.4179 80.1788
lradius 23.9505
lwrist -40.2736
lhand -32.7742 3.57037
lfingers 7.12502
lthumb -5.99617 33.4655
rfemur -7.67581 -16.909 21.04
rtibia 11.1822
rfoot -10.7979 12.0605
rtoes -4.85035e-014
lfemur -9.87473 11.9821 -17.8571
ltibia 9.71507
lfoot -2.15859 -16.7165
ltoes -9.54166e-015
481
root -18.8611 16.6289 5.0644 -154.63 85.7587 -164.59
lowerback -13.5712 -1.65421 -0.129301
upperback -4.07894 -1.95772 -0.59049
thorax 3.29392 -0.891932 -0.853881
lowerneck -1.82599 1.58021 8.47054
upperneck 27.414 3.86406 -5.64619
head 9.11887 2.54972 -3.02603
rclavicle 5.26779e-015 3.97569e-016
rhumerus -42.6739 -22.1811 -79.2823
rradius 18.395
rwrist 29.1698
rhand -35.9523 3.11411
rfingers 7.12502
rthumb -9.06375 -26.6712
lclavicle 5.26779e-015 3.97569e-016
lhumerus -42.3908 16.3927 80.1785
lradius 23.9439
lwrist -40.3154
lhand -32.7838 3.57286
lfingers 7.12502
lthumb -6.00551 33.4677
rfemur -7.69323 -16.9324 21.0537
rtibia 11.1893
rfoot -10.8152 12.087
rtoes 1.19271e-014
lfemur -9.88594 11.9849 -17.851
ltibia 9.71362
lfoot -2.16829 -16.7129
ltoes -6.36111e-015
